<svg xmlns:xlink="http://www.w3.org/1999/xlink" class="cart-icon-background-animate animation-rotate" width="76" height="80" viewBox="0 0 76 80" fill="none" xmlns="http://www.w3.org/2000/svg">
          <path d="M24.1378 78.8746C22.5423 78.2063 21.0304 77.284 19.6807 76.2248C16.2777 73.5564 13.6281 70.0702 10.6256 66.9598C6.03872 62.2103 0.170771 57.4571 0.00361436 50.8643C-0.158553 44.5167 5.18548 39.2706 6.12854 32.9902C6.84706 28.1997 4.94223 23.1465 6.45287 18.5426C8.14939 13.3712 13.7067 10.3903 19.0844 9.48673C21.0916 9.14943 23.1636 9.01875 25.0522 8.26077C28.4016 6.91657 30.6956 3.81123 33.7568 1.90073C39.9728 -1.97877 49.2126 0.315075 52.8801 6.64898C54.3845 9.24527 55.0768 12.3929 57.2636 14.4503C62.0076 18.9098 71.3584 16.1368 74.9161 21.5857C77.0504 24.8529 75.672 29.2165 73.8794 32.6816C72.0869 36.1466 69.8552 39.7971 70.4727 43.648C70.8369 45.9157 72.1655 47.9146 72.768 50.1325C74.3722 56.042 70.8407 64.7519 65.4867 67.5921C59.5202 70.7572 51.8135 68.1933 45.6075 71.0123C40.5965 73.2888 37.0987 78.505 31.7322 79.7359C29.1875 80.3197 26.5641 79.8928 24.1378 78.8771V78.8746ZM62.1036 52.089C61.4824 49.3882 59.4828 46.3725 59.3081 43.9504C59.0586 40.4978 61.1057 37.3664 62.635 34.2598C64.1644 31.1532 65.1424 27.1704 63.0217 24.4322C59.5439 19.9441 51.5615 23.0133 47.2005 19.374C45.4129 17.883 44.6133 15.5456 43.2511 13.66C41.5047 11.2416 38.164 9.9099 36.092 12.6742C35.4047 13.5903 34.9144 14.6631 34.0886 15.4572C33.1855 16.3259 31.9505 16.7865 30.7081 16.9657C28.1221 17.3391 25.9229 17.1437 23.3607 17.9577C21.9573 18.4032 20.5502 18.916 19.3614 19.7835C14.0099 23.6916 18.1139 31.9672 16.5459 37.3303C15.7488 40.0572 13.7417 42.2316 12.1948 44.6163C10.8239 46.7309 9.66129 49.5077 10.4883 52.0393C11.3154 54.5708 13.7891 55.8603 15.6365 57.477C18.674 60.1331 20.751 63.8831 23.9744 66.4085C25.5686 67.6581 27.4173 68.5032 29.4694 68.5467C32.3659 68.6077 34.0899 66.9063 36.2604 65.2373C38.0019 63.8981 39.8568 62.7119 41.8115 61.7038C45.6374 59.7286 49.8101 58.4217 54.0826 57.8766C57.7912 57.4036 60.9485 58.7503 62.1286 54.7164C62.3668 53.9025 62.3157 53.015 62.1024 52.0903L62.1036 52.089ZM11.8206 38.6023C11.8917 38.6259 11.9616 38.6508 12.0327 38.6745L12.2547 37.9339C12.1898 37.9115 12.125 37.8891 12.0601 37.8679L11.8206 38.6023Z" fill="#F1A6B4"></path>
          </svg>